<svg width="1688" height="918" viewBox="0 0 1688 918" fill="none" xmlns="http://www.w3.org/2000/svg">
<path d="M73 12V479.986C73 488.276 68.3402 495.862 60.9461 499.61L12.0539 524.39C4.65976 528.138 0 535.724 0 544.014V905.5C0 912.127 5.37261 917.5 12 917.5H1600.5C1607.13 917.5 1612.5 912.127 1612.5 905.5V790.173C1612.5 782.328 1616.68 775.078 1623.46 771.142L1676.54 740.358C1683.32 736.422 1687.5 729.172 1687.5 721.327V12C1687.5 5.37256 1682.13 0 1675.5 0H85C78.3726 0 73 5.37262 73 12Z" fill="#101012"/>
</svg>
