<svg version="1.1" xmlns="http://www.w3.org/2000/svg" style="display: block;" viewBox="0 0 2000 2000" width="500" height="500" preserveAspectRatio="none">
<path transform="translate(0,0)" fill="rgb(209,254,1)" d="M 567.461 532.442 C 630.805 530.908 698.589 532.771 762.247 532.474 C 792.712 532.163 823.18 532.149 853.646 532.432 C 893.841 532.579 942.825 530.927 976.018 558.266 C 1029.41 602.237 1011.11 675.463 994.56 732.455 C 990.096 747.827 977.341 809.644 969.678 819.566 C 968.841 819.683 968.003 819.785 967.164 819.873 C 956.179 821.039 939.429 820.688 928.244 820.667 L 862.007 820.336 C 834.37 820.202 806.417 821.304 778.754 820.972 C 774.054 820.916 773.618 820.988 770.664 818.606 C 769.052 809.805 788.494 741.667 792.111 727.64 C 771.661 728.48 748.177 727.695 727.362 727.97 C 670.194 728.723 611.973 727.097 554.89 728.401 C 547.158 764.904 538.299 801.159 528.327 837.114 C 522.629 858.283 515.241 882.913 511.214 904.154 L 512.815 904.114 C 543.456 903.404 574.686 905.22 605.387 905.113 C 646.279 904.971 687.111 903.987 727.992 905.24 C 758.806 906.185 790.139 902.272 820.627 907.786 C 894.491 920.687 926.787 975.099 910.944 1047.32 C 901.84 1088.81 889.532 1129.21 879.346 1170.28 L 854.51 1268.59 C 847.545 1296.68 837.848 1337.76 827.254 1363.83 C 818.749 1385.06 806.123 1404.39 790.104 1420.71 C 750.255 1461.14 704.029 1473.68 649.25 1474.09 L 415.887 1474 L 344.556 1474.15 C 323.638 1474.16 304.134 1474.29 283.567 1471.56 C 240.749 1466.06 200.994 1432.87 193.439 1389.12 C 185.724 1344.46 206.654 1294.24 216.867 1250.88 C 219.135 1241.25 229.344 1199.67 232.546 1195.07 C 236.708 1192.59 242.69 1191.08 247.512 1191.03 C 297.049 1190.58 346.574 1192.03 396.108 1190.33 C 407.281 1189.95 418.388 1191.71 429.667 1190.4 C 427.668 1212.51 416.726 1254.46 409.95 1276.68 C 469.546 1278.83 529.871 1276.9 589.563 1277.77 C 607.93 1278.03 631.195 1278.66 649.223 1276.87 C 651.724 1260.96 661.466 1226.59 665.685 1210.13 C 675.193 1171.98 685.038 1133.92 695.219 1095.95 L 493.909 1095.93 C 464.345 1095.89 433.955 1097.09 404.491 1095.64 C 345.989 1092.75 294.39 1058.19 291.931 996.158 C 291.322 983.143 292.113 970.1 294.291 957.254 C 298.842 931.521 306.626 904.28 313.272 878.985 C 321.905 845.109 330.75 811.289 339.809 777.525 C 352.451 730.02 362.08 683.635 379.621 637.277 C 405.88 567.876 472.191 535.082 543.339 533.313 C 551.339 533.115 559.481 532.714 567.461 532.442 z"/>
<path transform="translate(0,0)" fill="rgb(209,254,1)" d="M 1135.66 532.44 C 1197.93 533.764 1262.41 531.726 1324.82 531.989 C 1323.59 546.889 1319.46 563.463 1315.52 578.034 C 1294.11 657.376 1274.67 737.14 1255.19 816.976 C 1248.85 842.975 1238.42 868.555 1235.35 895.132 C 1243.31 888.701 1271.36 855.524 1281.57 844.875 L 1468.92 650.094 C 1502.08 615.363 1534.94 580.055 1568.08 545.294 C 1571.19 542.532 1578.8 534.35 1582.73 533.68 C 1602.59 530.303 1626.5 532.443 1646.55 532.474 C 1685.35 532.188 1724.14 532.1 1762.94 532.212 C 1781.68 532.193 1804.99 532.145 1824 532.168 C 1824.73 532.597 1825.46 533.027 1826.19 533.457 L 1826.71 535.976 C 1824.83 541.482 1710.3 658.871 1699.91 669.581 L 1486.92 890.384 C 1468.24 909.688 1449.55 928.376 1431.83 948.653 C 1423.92 957.701 1414.06 964.255 1406.77 974.453 C 1411.9 990.01 1422.1 1012.91 1428.34 1028.83 L 1492.55 1189.35 C 1502.65 1214.62 1515.47 1243.77 1523.8 1269.01 C 1532.25 1285.42 1541.69 1313.99 1549.27 1332.4 L 1580.75 1409.48 C 1589.62 1430.98 1599.18 1450.69 1604.5 1473.35 C 1593.17 1474.62 1577.57 1474.14 1565.79 1474.09 L 1509.66 1473.98 C 1472.12 1473.91 1423.29 1475.57 1386.74 1473.71 C 1375.52 1455.23 1357.57 1403.55 1348.42 1380.27 C 1326.55 1324.61 1303.3 1269.63 1281.07 1214.23 C 1275.12 1199.51 1269.35 1184.71 1263.75 1169.85 C 1259.54 1158.42 1255.62 1146.05 1250.48 1135.17 C 1238.34 1147.52 1227.88 1159.68 1215.51 1173.3 C 1193.38 1197.66 1156.93 1230.63 1138.74 1256.94 C 1131.73 1272.56 1126.49 1308.46 1121.62 1322.43 C 1115.19 1340.86 1086.44 1468 1079.51 1472.64 C 1064.48 1475.37 1015.05 1473.88 996.729 1473.9 L 918.922 1474.04 C 912.025 1474.05 885.369 1475.12 880.594 1472.81 C 878.507 1465.9 914.314 1339.07 918.737 1322.46 L 1004.96 996.485 L 1082.13 694.488 C 1086.25 677.731 1121.69 539.338 1124.53 536.38 C 1127.82 532.943 1131.16 532.85 1135.66 532.44 z"/>
</svg>